<?xml version="1.0" encoding="utf-8"?>
<svg version="1.1" xmlns:xlink="http://www.w3.org/1999/xlink" width="69px" height="44px" xmlns="http://www.w3.org/2000/svg">
  <g transform="matrix(1 0 0 1 -1839 -401 )">
    <path d="M 68.26841517857143 14.602500000000001  C 68.75613839285714 14.95083333333333  69 15.363333333333332  69 15.84  C 69 16.316666666666663  68.75613839285714 16.729166666666664  68.26841517857143 17.0775  L 48.554129464285715 31.1575  C 48.06640625 31.505833333333328  47.48883928571429 31.68  46.82142857142858 31.68  C 46.15401785714286 31.68  45.576450892857146 31.505833333333328  45.08872767857142 31.1575  C 44.60100446428572 30.809166666666666  44.35714285714286 30.396666666666665  44.35714285714286 29.919999999999998  L 44.35714285714286 22.880000000000003  L 35.73214285714286 22.880000000000003  C 33.21651785714286 22.880000000000003  30.964006696428577 22.935  28.974609375 23.044999999999998  C 26.98521205357143 23.155  25.00864955357143 23.352083333333333  23.044921875 23.636249999999997  C 21.08119419642857 23.920416666666664  19.374162946428577 24.31  17.923828125 24.805  C 16.47349330357143 25.299999999999997  15.119419642857142 25.937083333333334  13.861607142857144 26.71625  C 12.603794642857144 27.49541666666666  11.577008928571429 28.42125  10.78125 29.49375  C 9.985491071428573 30.56625  9.363002232142858 31.835833333333326  8.913783482142856 33.302499999999995  C 8.464564732142858 34.76916666666666  8.239955357142858 36.428333333333335  8.239955357142858 38.28  C 8.239955357142858 39.288333333333334  8.304129464285715 40.41583333333333  8.432477678571429 41.6625  C 8.432477678571429 41.7725  8.464564732142858 41.98791666666666  8.528738839285714 42.308749999999996  C 8.592912946428571 42.629583333333336  8.625 42.8725  8.625 43.0375  C 8.625 43.3125  8.515904017857144 43.541666666666664  8.297712053571429 43.725  C 8.079520089285715 43.90833333333333  7.7779017857142865 44  7.392857142857142 44  C 6.982142857142858 44  6.622767857142858 43.844166666666666  6.314732142857142 43.5325  C 6.135044642857143 43.3675  5.968191964285714 43.16583333333333  5.814174107142858 42.927499999999995  C 5.66015625 42.689166666666665  5.486886160714286 42.41416666666666  5.294363839285714 42.1025  C 5.101841517857142 41.79083333333333  4.967075892857142 41.57083333333333  4.890066964285714 41.4425  C 1.6300223214285712 36.2175  0 32.08333333333333  0 29.039999999999996  C 0 25.391666666666666  0.6802455357142856 22.33916666666666  2.040736607142857 19.8825  C 6.19921875 12.494166666666665  17.429687499999996 8.799999999999997  35.73214285714286 8.799999999999997  L 44.35714285714286 8.799999999999997  L 44.35714285714286 1.7600000000000016  C 44.35714285714286 1.2833333333333288  44.60100446428572 0.8708333333333278  45.08872767857142 0.5224999999999986  C 45.576450892857146 0.17416666666666458  46.15401785714286 0  46.82142857142858 0  C 47.48883928571429 0  48.06640625 0.17416666666666458  48.554129464285715 0.5224999999999986  L 68.26841517857143 14.602500000000001  Z " fill-rule="nonzero" fill="#000000" stroke="none" transform="matrix(1 0 0 1 1839 401 )" />
  </g>
</svg>