<?xml version="1.0" encoding="utf-8"?>
<svg version="1.1" xmlns:xlink="http://www.w3.org/1999/xlink" width="78px" height="44px" xmlns="http://www.w3.org/2000/svg">
  <g transform="matrix(1 0 0 1 -1948 -401 )">
    <path d="M 33.434375 25.73828125  C 33.678125 25.48046875  33.800000000000004 25.151041666666664  33.800000000000004 24.75  L 33.800000000000004 19.25  C 33.800000000000004 18.848958333333332  33.678125 18.51953125  33.434375 18.26171875  C 33.190625000000004 18.00390625  32.87916666666667 17.875  32.5 17.875  L 24.7 17.875  L 24.7 9.625  C 24.7 9.223958333333332  24.578125 8.89453125  24.334374999999998 8.63671875  C 24.090625 8.37890625  23.77916666666667 8.25  23.4 8.25  L 18.2 8.25  C 17.820833333333336 8.25  17.509375000000002 8.37890625  17.265625 8.63671875  C 17.021875 8.89453125  16.900000000000002 9.223958333333332  16.900000000000002 9.625  L 16.900000000000002 17.875  L 9.1 17.875  C 8.720833333333333 17.875  8.409375 18.00390625  8.165625 18.26171875  C 7.921875 18.51953125  7.800000000000001 18.848958333333332  7.800000000000001 19.25  L 7.800000000000001 24.75  C 7.800000000000001 25.151041666666664  7.921875 25.48046875  8.165625 25.73828125  C 8.409375 25.99609375  8.720833333333333 26.125  9.1 26.125  L 16.900000000000002 26.125  L 16.900000000000002 34.375  C 16.900000000000002 34.776041666666664  17.021875 35.10546875  17.265625 35.36328125  C 17.509375000000002 35.62109375  17.820833333333336 35.75  18.2 35.75  L 23.4 35.75  C 23.77916666666667 35.75  24.090625 35.62109375  24.334374999999998 35.36328125  C 24.578125 35.10546875  24.7 34.776041666666664  24.7 34.375  L 24.7 26.125  L 32.5 26.125  C 32.87916666666667 26.125  33.190625000000004 25.99609375  33.434375 25.73828125  Z M 55.676562499999996 31.388671875  C 56.692187499999996 30.314453125  57.199999999999996 29.018229166666664  57.199999999999996 27.5  C 57.199999999999996 25.98177083333333  56.692187499999996 24.685546875  55.676562499999996 23.611328125  C 54.6609375 22.537109375  53.43541666666667 22  52 22  C 50.56458333333334 22  49.339062500000004 22.537109375  48.3234375 23.611328125  C 47.307812500000004 24.685546875  46.8 25.98177083333333  46.8 27.5  C 46.8 29.018229166666664  47.307812500000004 30.314453125  48.3234375 31.388671875  C 49.339062500000004 32.462890625  50.56458333333334 33  52 33  C 53.43541666666667 33  54.6609375 32.462890625  55.676562499999996 31.388671875  Z M 66.07656250000001 20.388671875  C 67.0921875 19.314453125  67.60000000000001 18.018229166666664  67.60000000000001 16.5  C 67.60000000000001 14.981770833333332  67.0921875 13.685546875  66.07656250000001 12.611328125  C 65.0609375 11.537109375  63.83541666666667 11  62.400000000000006 11  C 60.96458333333334 11  59.739062499999996 11.537109375  58.723437499999996 12.611328125  C 57.7078125 13.685546875  57.199999999999996 14.981770833333332  57.199999999999996 16.5  C 57.199999999999996 18.018229166666664  57.7078125 19.314453125  58.723437499999996 20.388671875  C 59.739062499999996 21.462890625  60.96458333333334 22  62.400000000000006 22  C 63.83541666666667 22  65.0609375 21.462890625  66.07656250000001 20.388671875  Z M 71.90625 6.4453125  C 75.96875000000001 10.7421875  78.00000000000001 15.927083333333332  78 22  C 78.00000000000001 28.072916666666664  75.96875000000001 33.2578125  71.90625 37.5546875  C 67.84375 41.8515625  62.94166666666668 44  57.199999999999996 44  C 52 44  47.42291666666667 42.166666666666664  43.46875 38.5  L 34.53125 38.5  C 30.577083333333338 42.166666666666664  26 44  20.8 44  C 15.058333333333334 44  10.15625 41.8515625  6.09375 37.5546875  C 2.03125 33.2578125  0 28.072916666666664  0 22  C 0 15.927083333333332  2.03125 10.7421875  6.09375 6.4453125  C 10.15625 2.1484375  15.058333333333334 0  20.8 0  L 57.199999999999996 0  C 62.94166666666668 0  67.84375 2.1484375  71.90625 6.4453125  Z " fill-rule="nonzero" fill="#000000" stroke="none" transform="matrix(1 0 0 1 1948 401 )" />
  </g>
</svg>