<?xml version="1.0" encoding="utf-8"?>
<svg version="1.1" xmlns:xlink="http://www.w3.org/1999/xlink" width="300px" height="170px" xmlns="http://www.w3.org/2000/svg">
  <g transform="matrix(1 0 0 1 -676 -269 )">
    <path d="M 676 269  L 976 269  L 976 439  L 676 439  L 676 269  " fill-rule="nonzero" fill="#cccccc" stroke="none" />
    <path d="M 688 281  L 964 281  L 964 427  L 688 427  L 688 281  " fill-rule="nonzero" fill="#ffffff" stroke="none" />
    <path d="M 844.75 320  C 837.61 320  832 314.39  832 307.25  C 832 300.11  837.61 294.5  844.75 294.5  C 851.89 294.5  857.5 300.11  857.5 307.25  C 857.5 314.39  851.89 320  844.75 320  " fill-rule="nonzero" fill="#cccccc" stroke="none" />
    <path d="M 693 423  L 693 347.65  L 759.75 313.4  L 853.2 376.42  L 906.6 333.95  L 960 376.42  L 960 423  L 693 423  " fill-rule="nonzero" fill="#169bd5" stroke="none" />
  </g>
</svg>